<?xml version="1.0" standalone="no"?>
<!DOCTYPE svg PUBLIC "-//W3C//DTD SVG 1.1//EN" "http://www.w3.org/Graphics/SVG/1.1/DTD/svg11.dtd">
<svg xmlns:xlink="http://www.w3.org/1999/xlink" version="1.1" style="font-family:dosis, sans-serif;font-size:12px;" xmlns="http://www.w3.org/2000/svg" width="600" height="400">
<desc>Created with Highcharts 4.2.7</desc><defs><clipPath id="highcharts-86"><rect x="0" y="0" width="580" height="352"></rect></clipPath></defs><rect x="0" y="0" width="50" height="152" fill="rgb(255, 255, 255)" fill-opacity=" .9"></rect><g class="highcharts-series-group">
<g class="highcharts-series highcharts-series-0" transform="translate(10,10) scale(1 1)"><path fill="#313430" d="M 289.9661902481866 10.000003443070256 A 166 166 0 1 1 132.198308714916 227.52306500555892 L 290 176 A 0 0 0 1 0 290 176 Z" stroke="#FFFFFF" stroke-width="1" stroke-linejoin="round" transform="translate(0,0)"></path><path fill="#c9c4c2" d="M 132.1468645593367 227.36523757904376 A 166 166 0 0 1 289.7694293302801 10.000160129094496 L 290 176 A 0 0 0 0 0 290 176 Z" stroke="#FFFFFF" stroke-width="1" stroke-linejoin="round" transform="translate(-8,-6)"></path></g><g class="highcharts-markers highcharts-series-0" transform="translate(10,10) scale(1 1)"></g></g><g class="highcharts-data-labels highcharts-series-0" transform="translate(10,10) scale(1 1)" opacity="1"><path fill="none" d="M 453.5673308974897 291.20590944932474 C 448.5673308974897 291.20590944932474 442.09519494249014 286.5036274309849 433.1960080043657 280.0379896557677 L 424.29682106624125 273.5723518805505" stroke="#313430" stroke-width="1"></path><path fill="none" d="M 126.43266910251029 60.79409055067528 C 131.4326691025103 60.79409055067528 137.9048050575099 65.49637256901507 146.8039919956343 71.96201034423227 L 155.70317893375872 78.42764811944947" stroke="#c9c4c2" stroke-width="1"></path><g style="cursor:pointer;" transform="translate(459,281)"><text x="5" style="font-size:10px;font-weight:bold;font-family:'arial', sans-serif;color:#333;text-shadow:none;fill:#333;text-rendering:geometricprecision;" y="15"><tspan>: 70</tspan></text></g><g style="cursor:pointer;" transform="translate(94,51)"><text x="5" style="font-size:10px;font-weight:bold;font-family:'arial', sans-serif;color:#333;text-shadow:none;fill:#333;text-rendering:geometricprecision;" y="15"><tspan>: 30</tspan></text></g></g><g class="highcharts-legend" transform="translate(261,374)"><g><g><g class="highcharts-legend-item" transform="translate(8,3)"><text x="21" style="color:#333;font-size:13px;font-weight:bold;cursor:pointer;font-family:dosis, sans-serif;text-transform:none;fill:#333;" text-anchor="start" y="16"></text><rect x="0" y="4" width="16" height="13" fill="#313430"></rect></g><g class="highcharts-legend-item" transform="translate(49,3)"><text x="21" y="16" style="color:#333;font-size:13px;font-weight:bold;cursor:pointer;font-family:dosis, sans-serif;text-transform:none;fill:#333;" text-anchor="start"></text><rect x="0" y="4" width="16" height="13" fill="#c9c4c2"></rect></g></g></g></g><g class="highcharts-tooltip" display="none" style="cursor:default;padding:0;pointer-events:none;white-space:nowrap;" transform="translate(0,0)"><path fill="rgb(219,219,216)" fill-opacity="0.8" d="M 3 0 L 13 0 C 16 0 16 0 16 3 L 16 13 C 16 16 16 16 13 16 L 3 16 C 0 16 0 16 0 13 L 0 3 C 0 0 0 0 3 0"></path><text x="8" style="font-size:12px;color:#333;fill:#333;" y="20"></text></g><text x="590" text-anchor="end" style="cursor:pointer;color:#666;font-size:9px;fill:#666;" y="395">meta-chart.com</text></svg>